<?xml version="1.0" encoding="utf-8"?>
<!-- Generator: Adobe Illustrator 20.1.0, SVG Export Plug-In . SVG Version: 6.00 Build 0)  -->
<svg version="1.1" id="Layer_1" xmlns="http://www.w3.org/2000/svg" xmlns:xlink="http://www.w3.org/1999/xlink" x="0px" y="0px"
	 viewBox="0 0 493.5 175.5" style="enable-background:new 0 0 493.5 175.5;" xml:space="preserve">
<style type="text/css">
	.st0{fill:#989898;}
	.st1{fill:#F89521;}
	.st2{fill:#595A5C;}
</style>
<g>
	<g>
		<g>
			<path class="st0" d="M26.5,138.1c3.2,0,5.7,1.5,7.4,3.1l-3.2,3.3c-1.3-1-2.5-1.9-4.2-1.9c-3.4,0-6.2,2.9-6.2,7.9
				c0,5,2.3,7.9,5.9,7.9c2.1,0,3.6-0.8,4.7-2.1l3.2,3.3c-2.1,2.3-4.9,3.5-7.9,3.5c-6.4,0-11.7-4.4-11.7-12.5
				C14.6,142.7,19.9,138.1,26.5,138.1z"/>
			<path class="st0" d="M39.5,138.5H45v19.8h9.8v4.6H39.2v-24.4H39.5z"/>
			<path class="st0" d="M58.1,150.6c0-7.9,4.7-12.5,11.2-12.5s11.2,4.6,11.2,12.5s-4.7,12.7-11.2,12.7S58.1,158.5,58.1,150.6z
				 M75.1,150.6c0-4.8-2.1-7.7-5.5-7.7c-3.4,0-5.5,2.9-5.5,7.7c0,5,2.1,8.1,5.5,8.1C73,158.7,75.1,155.4,75.1,150.6z"/>
			<path class="st0" d="M87,138.5h5.7v13.7c0,4.8,1.5,6.5,4.2,6.5s4.5-1.7,4.5-6.5v-13.7h5.5v13.1c0,8.1-3.4,11.9-9.8,11.9
				c-6.4,0-10-3.5-10-11.9v-13.1H87z"/>
			<path class="st0" d="M114,138.5h7c7.6,0,12.5,3.7,12.5,12.1c0,8.3-4.9,12.3-12.1,12.3H114L114,138.5z M120.7,158.5
				c4.2,0,7-2.1,7-7.9s-2.8-7.7-7-7.7h-1.1v15.6H120.7z"/>
			<path class="st0" d="M149.2,138.5h8.5c5.1,0,9.1,1.5,9.1,6c0,2.1-1.3,4.6-4.2,5.2v0.2c3.6,0.6,5.3,2.5,5.3,5.8
				c0,5-4.2,7.3-9.8,7.3h-9.3v-24.6H149.2z M157.5,148.3c2.8,0,4-1.2,4-2.9c0-1.7-1.3-2.5-3.8-2.5h-2.8v5.6L157.5,148.3L157.5,148.3
				z M158.1,158.7c3,0,4.7-1,4.7-3.3c0-2.1-1.5-3.1-4.7-3.1h-3.2v6.5H158.1z"/>
			<path class="st0" d="M185.7,157.1h-7.6l-1.5,5.8h-5.7l7.9-24.4h6.8l7.9,24.4h-5.9L185.7,157.1z M184.4,152.7l-0.6-2.3
				c-0.6-2.5-1.3-5.4-2.1-7.9h-0.2c-0.6,2.5-1.3,5.4-1.9,7.9l-0.6,2.3H184.4z"/>
			<path class="st0" d="M198.8,156c1.7,1.5,4,2.5,6.2,2.5c2.3,0,3.4-0.8,3.4-2.3s-1.5-2.1-3.6-2.9l-3.2-1.2c-2.5-1-5.1-3.1-5.1-6.7
				c0-4,3.6-7.3,8.9-7.3c3,0,5.9,1,8.1,3.1l-3,3.5c-1.7-1.2-3.2-1.9-5.1-1.9c-1.9,0-3.2,0.8-3.2,2.3s1.7,2.1,3.8,2.9l3.2,1.2
				c3,1.2,4.9,3.1,4.9,6.7c0,4-3.4,7.5-9.3,7.5c-3.2,0-6.8-1.2-9.1-3.5L198.8,156z"/>
			<path class="st0" d="M220.1,138.5h15.5v4.6h-9.8v5h8.5v4.6h-8.5v5.6h10.4v4.6h-15.9L220.1,138.5L220.1,138.5z"/>
			<path class="st0" d="M242.6,138.5h7c7.6,0,12.5,3.7,12.5,12.1c0,8.3-4.9,12.3-12.1,12.3h-7.4L242.6,138.5z M249.1,158.5
				c4.2,0,7-2.1,7-7.9s-2.8-7.7-7-7.7h-1.1v15.6H249.1z"/>
			<path class="st0" d="M277.8,138.5h9.1c5.3,0,9.8,1.9,9.8,7.9c0,5.8-4.5,8.3-9.8,8.3h-3.4v8.3H278L277.8,138.5L277.8,138.5z
				 M286.7,150.2c3.2,0,4.7-1.2,4.7-4c0-2.5-1.7-3.5-4.7-3.5h-3.2v7.3L286.7,150.2L286.7,150.2z"/>
			<path class="st0" d="M316,162.9l-4.7-8.7h-3.2v8.7h-5.5v-24.4h8.9c5.3,0,9.6,1.9,9.6,7.7c0,3.5-1.7,5.8-4.5,7.1l5.7,9.8
				L316,162.9L316,162.9z M308.4,149.8h3c3,0,4.5-1.2,4.5-3.5c0-2.3-1.7-3.1-4.5-3.1h-3V149.8z"/>
			<path class="st0" d="M327.5,138.5h5.5v24.4h-5.5V138.5z"/>
			<path class="st0" d="M340.8,138.5h5.7l6.6,12.1l2.5,5.4h0.2c-0.2-2.5-0.6-6-0.6-9v-8.5h5.3v24.4h-5.7l-6.6-12.3l-2.5-5.4h-0.2
				c0.2,2.7,0.6,6,0.6,8.7v8.7h-5.3V138.5z"/>
			<path class="st0" d="M372.7,143.1h-6.8v-4.6h19.3v4.6h-6.8v19.8h-5.7L372.7,143.1L372.7,143.1z"/>
			<path class="st0" d="M390.3,138.5h5.5v24.4h-5.5V138.5z"/>
			<path class="st0" d="M403.4,138.5h5.7l6.6,12.1l2.5,5.4h0.2c-0.2-2.5-0.6-6-0.6-9v-8.5h5.3v24.4h-5.7l-6.6-12.3l-2.5-5.4h-0.2
				c0.2,2.7,0.6,6,0.6,8.7v8.7h-5.3V138.5z"/>
			<path class="st0" d="M441.6,138.1c3.4,0,6.2,1.5,7.6,3.1l-3.2,3.3c-1.3-1-2.3-1.9-4.5-1.9c-3.8,0-6.6,2.9-6.6,7.9
				c0,5,2.3,7.9,7,7.9c1.1,0,2.1-0.2,2.8-0.8v-4.2h-4v-4.6h9.1v11.2c-1.7,1.7-4.9,2.9-8.3,2.9c-6.8,0-12.1-4.4-12.1-12.5
				C429.3,142.7,434.6,138.1,441.6,138.1z"/>
		</g>
		<g>
			<g>
				<path class="st1" d="M94.9,21.1h25.3c16.8,0,28,6.2,28,21.5c-0.2,21.5-16.6,31-39.3,31H94.6l-7,35.4H77L94.9,21.1z M109.3,65.2
					c18.5,0,28.2-7.3,28.2-21.2c0-10.2-7-14.4-20.2-14.4h-13.8l-7.2,35.6H109.3z"/>
				<path class="st1" d="M184.4,21.1c16.6,0,28,5.8,28,20.4c0,16.2-11.2,26.2-26.3,29.2l15.7,38.1h-11.5l-14.6-37.3h-15.5l-7.9,37.5
					h-10.6l17.8-87.7h24.6v-0.2H184.4z M175.1,63.3c17,0,26.5-7.9,26.5-20.4c0-9.6-7-13.5-20-13.5h-13.2l-6.8,33.9H175.1z"/>
				<path class="st1" d="M225.2,21.1h10.6l-17.6,87.9h-10.6L225.2,21.1z"/>
				<path class="st1" d="M249.6,21.1h10.6l20.4,56.2l5.7,18.3h0.6c1.1-8.7,2.1-19,4-27.9l9.3-46.7l10.2,0.6l-17.4,87.3h-10.4
					l-20.4-56.2l-5.9-19h-0.6c-1.1,9.2-2.5,19-4.2,27.7l-9.6,47.5h-10.2L249.6,21.1z"/>
				<path class="st1" d="M353.6,30H305l-4.5-9h100.6l-1.7,9h-35.2l-11.7,56.4h-10.6L353.6,30z"/>
				<path class="st2" d="M43.7,40C63,40,72.6,53.8,72.6,71.9c0,3.5-0.4,6.7-0.8,8.3H31c1.7,10,8.5,14.4,17.6,14.4
					c5.1,0,9.8-1.5,14.6-4.4l6.6,11.9c-7,4.6-15.9,7.5-24,7.5c-19.3,0-34.2-12.9-34.2-34.8C11.7,53.3,27.2,40,43.7,40z M55.4,67.9
					c0-7.7-3.2-12.9-11.2-12.9c-6.4,0-11.7,4.2-13.2,12.9H55.4z"/>
				<path class="st2" d="M376.3,41.7h20v66.4h-20V41.7z"/>
				<path class="st2" d="M415.8,56.9h-9.3V41.5h10.4l-0.2-20.4h19.1v20.4h16.1v15.4h-16.1v26.7c0,7.5,3.4,10.6,8.7,10.6
					c2.1,0,4.7-0.6,6.4-1.2l3.2,14.4c-3.6,1-8.5,2.5-15.1,2.5c-16.8,0-23.3-10.2-23.3-25.6V56.9H415.8z"/>
				<path class="st1" d="M313.2,110.2l5.5-23.7h33.7L313.2,110.2z M322.8,91.4l-2.1,8.5l14.4-8.5H322.8z"/>
			</g>
		</g>
	</g>
	<g>
		<path class="st2" d="M460,23.1h-3.6v-2.1h9.3v2.1h-3.6v9.3H460L460,23.1L460,23.1z M467.5,21.3h2.8l1.5,4.1l1,2.8h0.3l1-2.8
			l1.5-4.1h2.6v11.1h-2.1v-4.9l0.3-3.9h-0.3l-2.6,7h-1.5l-2.6-7l0,0l0.3,3.9v4.9h-2.1V21.3H467.5z"/>
	</g>
</g>
</svg>
