<svg xmlns="http://www.w3.org/2000/svg" width="137" height="33" viewBox="0 0 137 33"><g fill="none" fill-rule="evenodd"><path fill="#2C8BFF" d="M48.3526382 11.0310327C47.4157417 10.7232442 46.5906139 10.5692442 45.8780887 10.5692442 45.0819457 10.5692442 44.4519959 10.7232442 43.9878224 11.0310327 43.5238574 11.3390327 43.2915621 11.7667635 43.2915621 12.3138019 43.2915621 12.8100712 43.4533764 13.2246865 43.776588 13.5580712 44.0997995 13.8916673 44.506212 14.1653981 44.9949913 14.3790519 45.4839791 14.5931288 46.1516717 14.8279365 46.9972349 15.0847442 48.174142 15.443725 49.1398148 15.8031288 49.8944616 16.1623212 50.648483 16.5213019 51.2909441 17.0518404 51.8218452 17.7528788 52.3521207 18.4545519 52.6175712 19.3779173 52.6175712 20.5236096 52.6175712 21.6183212 52.3314769 22.5721481 51.7594967 23.3840327 51.187725 24.1967635 50.3999228 24.8169942 49.3971329 25.2443019 48.3937174 25.6720327 47.245795 25.8856865 45.9527402 25.8856865 44.5931664 25.8856865 43.2667478 25.6250712 41.973693 25.1032058 40.6804297 24.5817635 39.5527341 23.8845327 38.5914403 23.0123596L39.9841694 20.0876288C40.8626793 20.9257442 41.8494129 21.584475 42.9435362 22.062975 44.0376595 22.5421096 45.0571314 22.7813596 46.0023688 22.7813596 46.9307158 22.7813596 47.6603399 22.5977442 48.1908239 22.2296673 48.7215164 21.862225 48.9867584 21.3619365 48.9867584 20.7288019 48.9867584 20.2158212 48.8251527 19.7925327 48.5017326 19.4589365 48.1783125 19.1253404 47.7679381 18.8560519 47.2708178 18.6508596 46.7732805 18.4456673 46.0932851 18.2146673 45.2314571 17.9580712 44.0539244 17.5988788 43.0926306 17.2485712 42.3465332 16.9060904 41.6004358 16.5642442 40.9621451 16.0468212 40.4318696 15.3540327 39.90076 14.6614558 39.635935 13.7503596 39.635935 12.6218019 39.635935 11.5787058 39.905139 10.6678212 40.4441725 9.88957115 40.9827889 9.11153269 41.7455682 8.50843654 42.7320933 8.08070577 43.7182014 7.65339808 44.8584084 7.43932115 46.1516717 7.43932115 47.2789502 7.43932115 48.3937174 7.61045577 49.4963901 7.95230192 50.5986458 8.29457115 51.581209 8.75657115 52.443454 9.33787885L51.1007706 12.3398212C50.2053703 11.775225 49.2889091 11.3390327 48.3526382 11.0310327M64.0073801 17.7529635C63.9740163 16.7437135 63.6505962 15.9402904 63.0375368 15.3412135 62.4238519 14.7427712 61.611444 14.4432327 60.6003131 14.4432327 59.6552842 14.4432327 58.8633116 14.7383288 58.2252294 15.3283096 57.5867301 15.9185019 57.1932461 16.7265788 57.0439432 17.7529635L64.0073801 17.7529635zM65.3627834 13.7248481C66.4320924 14.9735596 66.9667469 16.7265788 66.9667469 18.9843288 66.9667469 19.4291942 66.9581974 19.7627904 66.9419326 19.9849058L57.1185947 19.9849058C57.3339995 20.9598865 57.7775292 21.7254442 58.4491837 22.2809442 59.1204212 22.8370788 59.9453405 23.1150404 60.9237332 23.1150404 61.6033116 23.1150404 62.2541137 22.9826173 62.8757225 22.7171365 63.4975399 22.4522904 64.0403268 22.0717327 64.5047088 21.5754635L66.2454638 23.4486365C65.5823588 24.2010788 64.7741213 24.7823865 63.8207514 25.1929827 62.8673816 25.6035788 61.8103755 25.8087712 60.6499417 25.8087712 59.2903679 25.8087712 58.0923998 25.5181173 57.0564546 24.9363865 56.0200924 24.3552904 55.2199874 23.5383288 54.6565566 22.4863481 54.0927088 21.4343673 53.811202 20.2247904 53.811202 18.8561365 53.811202 17.4879058 54.0970878 16.273675 54.669068 15.2130212 55.2410482 14.1525788 56.0407362 13.3271558 57.0689661 12.737175 58.0965703 12.1469827 59.2655536 11.8520981 60.5754988 11.8520981 62.6976434 11.8520981 64.2932659 12.4765596 65.3627834 13.7248481L65.3627834 13.7248481zM75.8447639 22.5890077C76.5078689 22.1358923 76.8809177 21.5755269 76.96391 20.9085462L76.96391 19.6769692 73.6066802 19.6769692C72.7444352 19.6769692 72.1103149 19.8096038 71.704111 20.0746615 71.2976985 20.3399308 71.0950135 20.7718923 71.0950135 21.3703346 71.0950135 21.9518538 71.3062479 22.4138538 71.7291338 22.7557 72.1518111 23.0979692 72.7277533 23.2688923 73.4573773 23.2688923 74.3857244 23.2688923 75.1814504 23.0423346 75.8447639 22.5890077L75.8447639 22.5890077zM76.9887244 25.6804308L76.9887244 24.0128731C76.5245508 24.6117385 75.9275478 25.0648538 75.1983408 25.3724308 74.4682997 25.6804308 73.631703 25.8344308 72.6864656 25.8344308 71.7577015 25.8344308 70.9413317 25.6508154 70.2367304 25.2827385 69.5321292 24.9152962 68.9891338 24.4065462 68.6079527 23.7562769 68.2263545 23.1064308 68.0359725 22.3797962 68.0359725 21.5755269 68.0359725 20.2929692 68.4751231 19.2881615 69.3540501 18.5608923 70.23256 17.8340462 71.4759861 17.4623731 73.0843286 17.4450269L76.96391 17.4450269 76.96391 17.0858346C76.96391 16.2822 76.7068005 15.6577385 76.1929983 15.2130846 75.6787791 14.7682192 74.9328903 14.5461038 73.9549146 14.5461038 72.6948065 14.5461038 71.3765204 14.9736231 70.0006817 15.8286615L68.8316985 13.5197192C69.8764017 12.9212769 70.825184 12.4895269 71.6790881 12.2240462 72.5329922 11.9592 73.5320288 11.8265654 74.6761977 11.8265654 76.4000623 11.8265654 77.7387837 12.2542962 78.6923621 13.1093346 79.645732 13.9645846 80.1305493 15.1616808 80.1472312 16.7010462L80.1720455 25.6804308 76.9887244 25.6804308z"/><polygon fill="#1D1248" points="83.306 7.722 86.638 7.722 86.638 15.393 93.575 15.393 93.575 7.722 96.907 7.722 96.907 25.68 93.575 25.68 93.575 18.394 86.638 18.394 86.638 25.68 83.306 25.68"/><path fill="#1D1248" d="M112.748331 11.9546519L112.748331 25.6805365 109.490775 25.6805365 109.490775 23.1405942C108.595167 24.9196327 107.053343 25.8087288 104.864888 25.8087288 103.372693 25.8087288 102.195369 25.3384788 101.333749 24.3975558 100.471296 23.4572673 100.040486 22.1747096 100.040486 20.5492481L100.040486 11.9546519 103.29825 11.9546519 103.29825 19.5744788C103.29825 20.5325365 103.550772 21.2849788 104.056651 21.8320173 104.562112 22.3796904 105.26296 22.6529981 106.158151 22.6529981 107.185964 22.6362865 107.998581 22.2599596 108.595167 21.5242288 109.19217 20.7891327 109.490775 19.8566712 109.490775 18.7279019L109.490775 11.9546519 112.748331 11.9546519zM125.456259 21.7678577C126.152728 20.9898192 126.500962 19.9936846 126.500962 18.7792423 126.500962 17.5650115 126.152728 16.5726846 125.456259 15.8031077 124.759999 15.0335308 123.864598 14.6485308 122.770475 14.6485308 121.659461 14.6485308 120.756137 15.0335308 120.059668 15.8031077 119.363408 16.5726846 119.015174 17.5650115 119.015174 18.7792423 119.015174 20.0103962 119.363408 21.0111846 120.059668 21.7807615 120.756137 22.55055 121.659461 22.93555 122.770475 22.93555 123.864598 22.93555 124.759999 22.5465308 125.456259 21.7678577M126.786848 12.7372808C127.740009 13.3272615 128.477766 14.1526846 129.000118 15.2131269 129.522261 16.2735692 129.783541 17.4962615 129.783541 18.8816269 129.783541 20.2502808 129.526431 21.45605 129.012629 22.4991462 128.49841 23.5426654 127.769203 24.3551846 126.824174 24.9364923 125.878936 25.5182231 124.784813 25.8088769 123.541387 25.8088769 122.546521 25.8088769 121.667594 25.6079154 120.90544 25.2057808 120.142452 24.8042808 119.512711 24.2181077 119.015174 23.4485308L119.015174 25.6804731 115.782016 25.6804731 115.782016 6.64412692 119.015174 6.64412692 119.015174 14.2123385C119.496029 13.4429731 120.113259 12.8572231 120.868114 12.4550885 121.622136 12.0533769 122.496892 11.8522038 123.491758 11.8522038 124.735184 11.8522038 125.83327 12.1470885 126.786848 12.7372808"/><path fill="#2C8BFF" d="M16.1007113,0.211580769 C7.2084312,0.211580769 -2.08523592e-05,7.52404231 -2.08523592e-05,16.5451 C-2.08523592e-05,25.5655231 7.2084312,32.8786192 16.1007113,32.8786192 C24.9931998,32.8786192 32.2014434,25.5655231 32.2014434,16.5451 C32.2014434,7.52404231 24.9931998,0.211580769 16.1007113,0.211580769 M16.1007113,3.17311923 C23.3688011,3.17311923 29.2821131,9.17171538 29.2821131,16.5451 C29.2821131,23.9182731 23.3688011,29.9170808 16.1007113,29.9170808 C8.83262146,29.9170808 2.91930944,23.9182731 2.91930944,16.5451 C2.91930944,9.17171538 8.83262146,3.17311923 16.1007113,3.17311923"/><path fill="#1D1248" d="M16.1007113,9.14702885 C16.5592546,9.14702885 16.9323033,9.52547115 16.9323033,9.99064423 C16.9323033,10.4558173 16.5592546,10.8344712 16.1007113,10.8344712 C15.6421679,10.8344712 15.2691192,10.4558173 15.2691192,9.99064423 C15.2691192,9.52547115 15.6421679,9.14702885 16.1007113,9.14702885 L16.1007113,9.14702885 Z M22.705696,17.0033558 C22.705696,20.189125 20.5020187,22.8606442 17.5603764,23.5367212 L17.5603764,17.0422788 L20.1308467,17.0422788 L20.1308467,14.0807404 L17.5603764,14.0807404 L17.5603764,13.4960481 C18.9055621,12.9170673 19.8516336,11.5640673 19.8516336,9.99064423 C19.8516336,7.89239423 18.1690568,6.18549038 16.1007113,6.18549038 C14.0323658,6.18549038 12.3497889,7.89239423 12.3497889,9.99064423 C12.3497889,11.5640673 13.2958604,12.9170673 14.6410461,13.4960481 L14.6410461,14.0807404 L12.0707843,14.0807404 L12.0707843,17.0422788 L14.6410461,17.0422788 L14.6410461,23.5367212 C11.6994038,22.8606442 9.49572648,20.189125 9.49572648,17.0033558 L6.57639619,17.0033558 C6.57639619,22.3309519 10.8488361,26.6651635 16.1007113,26.6651635 C21.3525865,26.6651635 25.6250263,22.3309519 25.6250263,17.0033558 L22.705696,17.0033558 Z"/><polygon fill="#1D1248" points="130.319 22.269 132.9 22.269 132.9 22.69 131.834 22.69 131.834 25.619 131.381 25.619 131.381 22.69 130.319 22.69"/><polygon fill="#1D1248" points="133.419 22.269 133.957 22.269 135.165 24.624 136.363 22.269 136.906 22.269 136.906 25.619 136.481 25.619 136.476 22.944 135.302 25.265 135.023 25.265 133.839 22.944 133.839 25.619 133.419 25.619"/></g></svg>